<?xml version="1.0" encoding="iso-8859-1"?>
<!-- Uploaded to: SVG Repo, www.svgrepo.com, Generator: SVG Repo Mixer Tools -->
<!DOCTYPE svg PUBLIC "-//W3C//DTD SVG 1.1//EN" "http://www.w3.org/Graphics/SVG/1.1/DTD/svg11.dtd">
<svg fill="#000000" version="1.1" id="Capa_1" xmlns="http://www.w3.org/2000/svg" xmlns:xlink="http://www.w3.org/1999/xlink" 
	 width="800px" height="800px" viewBox="0 0 280.586 280.587"
	 xml:space="preserve">
<g>
	<g>
		<path d="M132.821,22.247c-0.8-4.3-7.6-5.2-9.5-1.2c-5.6,12.2-9.7,25.1-17,36.3c-3.6-11.6-6.2-23.6-10.6-35c-1.6-4.2-8-5-9.3,0
			c-2.9,11.6-5.7,23.1-6.8,34.9c-4.9-12.3-13.3-23.4-21.4-33.7c-2.7-3.4-8.4-1.2-9.4,2.5c-7.2,26.2-28.1,98.6,19,98.8
			c0.8,0,1.4-0.2,2-0.6c-4.4,22.399-30.6,168.8,16.8,149.899c19.7-7.899,19.3-47.1,20.6-63.899c2-25.8-1.6-52.5,1.5-78.1
			C157.021,138.847,137.421,47.347,132.821,22.247z M110.021,120.347c-4.2-0.7-7,2.5-7.4,5.7c-2.7,0-5.3,1.2-5.9,4.3
			c-7.3,39.7,3.5,81.1-7.9,121c-4.5,15.699-15.6,12.899-17.6-2.701c-1.8-14.699-0.1-30.1,1-44.699c2-26.2,9-54.7,5-80.8
			c-0.4-2.4-3-3.1-5-2.3c0.3-2.1-0.6-4.4-3.2-4.9c-29.8-6.2-18.1-48.9-11.8-75.3c6.1,8.9,11.1,18.1,16.1,28c2.3,4.6,9,2,9.1-2.5
			c0.5-0.2,1-0.6,1.2-1.3c2.6-8.2,5-16.5,7.5-24.8c2.7,9.9,5,19.8,8.6,29.4c1.2,3.3,5.7,5.4,8.5,2.2c8-9.2,12.9-19.7,17.5-30.5
			C130.621,71.047,136.821,124.947,110.021,120.347z"/>
		<path d="M202.221,0.047c-32.3-1.4-47.1,28.8-53.1,56.4c-4.601,21.5-5,60.7,21.7,68.3c-0.2,0.4-0.301,0.8-0.4,1.3
			c-2,18.1-32.8,175,17.2,152.301c22.3-10.101,24-46.9,26.3-67.5c2.5-23.201,9.2-61.301-0.6-83.5c-0.2-0.5-0.601-1-1-1.3
			C248.921,102.047,259.921,2.447,202.221,0.047z M191.721,256.247c-8.2,19.2-19,6.3-20.6-8.3c-1.5-13.801-0.2-28,0.8-41.801
			c1.9-26.5,7.6-53.399,6.1-80c-0.1-1.6-0.899-2.7-2-3.2c1.4-2.1,1.301-5.1-1.399-6.7c-34.3-19.9-13.2-109.9,29.8-103.5
			c42.6,6.3,26.5,88.5-0.5,104.3c-4.8,2.8-3.2,8.7,0.6,10.7c-0.199,0.3-0.3,0.6-0.399,1
			C196.421,170.747,209.521,214.646,191.721,256.247z"/>
		<path d="M209.421,31.147c-3.6-2.4-7.8,1.6-6.9,5.3c1.4,5.9,4.801,10.9,6.2,17c1.601,7.1,1,14.8-0.399,21.9
			c-3.2,15.5-14.2,25.9-30.301,25.2c-4.8-0.2-5.899,7.5-1.1,8.4c19.8,3.7,34.2-7.1,41.1-25.2
			C223.521,69.247,223.721,40.947,209.421,31.147z"/>
	</g>
</g>
</svg>